<svg xmlns="http://www.w3.org/2000/svg" viewBox="0 0 64 64" role="img" aria-label="Pergamenre hányt szavak">
  <!-- Hummingbird palette · marigold korong, tinta toll (quill), tintaspriccek -->
  <circle cx="32" cy="32" r="32" fill="#fbcb6e"/>
  <path d="M40 8 C 22 19, 17 38, 25 51 C 41 45, 52 23, 40 8 Z" fill="#0e0e0e"/>
  <path d="M40 8 C 31 23, 27 38, 24.5 52" stroke="#fbcb6e" stroke-width="1.6" fill="none" stroke-linecap="round"/>
  <path d="M24.5 52 L 20 58" stroke="#0e0e0e" stroke-width="2.6" fill="none" stroke-linecap="round"/>
  <g stroke="#fbcb6e" stroke-width="1.1" stroke-linecap="round">
    <path d="M35 17 l -6 4"/><path d="M32 25 l -7 4"/><path d="M29 33 l -6 4"/>
    <path d="M37 19 l 6 3"/><path d="M34 27 l 6 3"/><path d="M31 35 l 5 3"/>
  </g>
  <circle cx="38" cy="55" r="1.7" fill="#0e0e0e"/>
  <circle cx="44" cy="58" r="1.1" fill="#0e0e0e"/>
  <circle cx="34" cy="59" r="0.9" fill="#5b54c9"/>
</svg>
